<?xml version="1.0" encoding="UTF-8"?>
<svg id="Layer_2" data-name="Layer 2" xmlns="http://www.w3.org/2000/svg" viewBox="0 0 1066.67 1066.67">
  <defs>
    <style>
      .cls-1 {
        fill: #ea580c;
      }

      .cls-2 {
        fill: #0c0d0d;
      }
    </style>
  </defs>
  <g id="Layer_1-2" data-name="Layer 1">
    <rect class="cls-2" width="1066.67" height="1066.67" rx="146.96" ry="146.96"/>
    <g>
      <path class="cls-1" d="M508.01,471.63l22.02-18.05c18.73-18.42,28.11-42.3,26.42-69.79,42.18,35.51,68.32,91.38,54.49,146.2-5.97,24.4-18.03,45.89-34.95,64.44l-.32,3.71c-.07.83,2.72.83,3.55.54,77.78-27,128.47-95.78,126.17-179.01-.97-35.29-11.53-68.28-29.38-98.51-14.41-24.41-32.45-44.94-53.17-64.25-26.62-24.8-52.7-45.49-68.07-80.09-7.92-17.98-11.36-36.85-8.45-56.44l-1.96-3.42c-.49-.86-3.04-.44-4.07.13-23.26,12.84-41.66,31.75-53.93,55.54-21.63,41.96-22.24,90.26-4.37,133.85,6.54,15.95,14.59,31.54,1,46.53-5.75,6.35-15.08,9.82-24.01,7.86-12.87-2.83-21.6-12.43-26.63-24.31-9.08-21.46-3.55-40.28-7.41-42.68-1.02-.64-3.78.2-4.89,1.19-60.21,52.85-74.93,145.42-40.97,216.88,20.44,43.02,57.32,76.68,104.22,90.91-5.63-13.59-12.31-23.58-15.42-36.32-5.86-24-1.26-48.2,13.13-68.29,7.41-10.35,16.8-18.26,26.98-26.61Z"/>
      <path class="cls-1" d="M811.75,774.54l56.77-107.83-121.77,4.74,19.97,31.67-196.65,123.98c-3.45-1.79-7.19-3.17-11.16-4.07s-7.94-1.26-11.82-1.13l-27.71-43.94c1.79-3.45,3.17-7.19,4.07-11.16,5.68-25.06-10.03-49.98-35.09-55.66-25.06-5.68-49.98,10.03-55.66,35.09-.9,3.97-1.26,7.94-1.13,11.82l-165.46,104.32c-3.45-1.79-7.19-3.17-11.16-4.07-25.06-5.68-49.98,10.03-55.66,35.09-5.68,25.06,10.03,49.98,35.09,55.66,25.06,5.68,49.98-10.03,55.66-35.09.9-3.97,1.26-7.94,1.13-11.82l165.46-104.32c3.45,1.79,7.19,3.17,11.16,4.07s7.94,1.26,11.82,1.13l27.71,43.94c-1.79,3.45-3.17,7.19-4.07,11.16-5.68,25.06,10.03,49.98,35.09,55.66s49.98-10.03,55.66-35.09c.9-3.97,1.26-7.94,1.13-11.82l196.65-123.98,19.97,31.67Z"/>
    </g>
  </g>
</svg>